<?xml version="1.0" encoding="UTF-8" standalone="no"?>
<!-- Created with Inkscape (http://www.inkscape.org/) -->

<svg
   width="66.410545mm"
   height="79.639709mm"
   viewBox="0 0 66.410545 79.639709"
   version="1.1"
   id="svg1"
   xml:space="preserve"
   inkscape:version="1.4.3 (0d15f75, 2025-12-25)"
   sodipodi:docname="arcs.svg"
   xmlns:inkscape="http://www.inkscape.org/namespaces/inkscape"
   xmlns:sodipodi="http://sodipodi.sourceforge.net/DTD/sodipodi-0.dtd"
   xmlns="http://www.w3.org/2000/svg"
   xmlns:svg="http://www.w3.org/2000/svg"><sodipodi:namedview
     id="namedview1"
     pagecolor="#ffffff"
     bordercolor="#000000"
     borderopacity="0.25"
     inkscape:showpageshadow="2"
     inkscape:pageopacity="0.0"
     inkscape:pagecheckerboard="0"
     inkscape:deskcolor="#d1d1d1"
     inkscape:document-units="mm"
     inkscape:zoom="1.4563939"
     inkscape:cx="79.992093"
     inkscape:cy="216.97426"
     inkscape:window-width="2560"
     inkscape:window-height="1476"
     inkscape:window-x="-12"
     inkscape:window-y="-12"
     inkscape:window-maximized="1"
     inkscape:current-layer="layer1" /><defs
     id="defs1" /><g
     inkscape:label="Ebene 1"
     inkscape:groupmode="layer"
     id="layer1"
     transform="translate(-64.152666,-70.712975)"><g
       id="g1"
       transform="matrix(0.26458333,0,0,0.26458333,37.694333,57.483809)"
       style="stroke-width:2.89133862;stroke-dasharray:none"><polyline
         clip-path="url(#border_clip)"
         fill="none"
         points="250.5,150.5 250.5,150.5 259.2155742747658,150.88053019082543 267.864817766693,152.0192246987792 276.38190451025207,153.90741737109317 284.7020143325669,156.53073792140918 292.76182617406994,159.869221296335 300.5,163.89745962155615 307.85764363510464,168.5847955711008 314.77876096865396,173.8955556881022 321.21067811865476,179.78932188134524 327.1044443118978,186.22123903134607 332.4152044288992,193.1423563648954 337.1025403784439,200.5 341.130778703665,208.23817382593006 344.4692620785909,216.29798566743312 347.0925826289068,224.61809548974793 348.9807753012208,233.13518223330698 350.1194698091746,241.78442572523417 350.5,250.5 350.1194698091746,259.2155742747658 348.9807753012208,267.864817766693 347.0925826289068,276.38190451025207 344.4692620785909,284.7020143325669 341.130778703665,292.76182617406994 337.1025403784439,300.5 332.4152044288992,307.85764363510464 327.1044443118978,314.77876096865396 321.21067811865476,321.21067811865476 314.77876096865396,327.1044443118978 307.85764363510464,332.4152044288992 300.5,337.10254037844385 292.76182617406994,341.130778703665 284.7020143325669,344.4692620785908 276.38190451025207,347.0925826289068 267.864817766693,348.9807753012208 259.2155742747658,350.1194698091746 250.5,350.5 241.78442572523417,350.1194698091746 233.13518223330698,348.9807753012208 224.61809548974793,347.0925826289068 216.29798566743312,344.4692620785909"
         stroke="#000000"
         stroke-linecap="round"
         stroke-width="1"
         id="polyline1"
         style="stroke-width:2.89133862;stroke-dasharray:none" /><polyline
         clip-path="url(#border_clip)"
         fill="none"
         points="350.5,50.5 350.5,50.5 341.7844257252342,50.880530190825425 333.135182233307,52.0192246987792 324.61809548974793,53.907417371093175 316.2979856674331,56.530737921409155 308.23817382593006,59.86922129633501 300.5,63.89745962155612 293.1423563648954,68.58479557110081 286.22123903134604,73.8955556881022 279.78932188134524,79.78932188134524 273.8955556881022,86.22123903134604 268.5847955711008,93.14235636489536 263.8974596215561,100.5 259.869221296335,108.23817382593006 256.5307379214092,116.29798566743312 253.90741737109317,124.6180954897479 252.0192246987792,133.13518223330698 250.88053019082543,141.78442572523414 250.5,150.5"
         stroke="#000000"
         stroke-linecap="round"
         stroke-width="1"
         id="polyline2"
         style="stroke-width:2.89133862;stroke-dasharray:none" /><polyline
         clip-path="url(#border_clip)"
         fill="none"
         points="100.49999999999997,350.5 100.49999999999997,350.5 109.2155742747658,350.1194698091746 117.864817766693,348.98077530122083 126.38190451025211,347.0925826289068 134.70201433256682,344.4692620785909 142.76182617406997,341.130778703665 150.5,337.10254037844385 157.8576436351046,332.4152044288992 164.77876096865393,327.1044443118978 171.21067811865476,321.21067811865476 177.1044443118978,314.77876096865396 182.41520442889916,307.85764363510464 187.10254037844385,300.50000000000006 191.130778703665,292.76182617407 194.46926207859084,284.7020143325669 197.09258262890683,276.38190451025207 198.98077530122077,267.86481776669314 200.11946980917457,259.21557427476586 200.5,250.50000000000003"
         stroke="#000000"
         stroke-linecap="round"
         stroke-width="1"
         id="polyline3"
         style="stroke-width:2.89133862;stroke-dasharray:none" /></g><text
       xml:space="preserve"
       style="font-size:7.7611px;line-height:normal;font-family:'Berlin Sans FB';-inkscape-font-specification:'Berlin Sans FB';text-align:center;text-decoration-color:#000000;letter-spacing:0.235479px;writing-mode:lr-tb;direction:ltr;text-anchor:middle;fill:#000000;stroke-width:0.765;stroke-linecap:round;stroke-dasharray:none;paint-order:markers fill stroke"
       x="116.94981"
       y="127.04278"
       id="text1"><tspan
         sodipodi:role="line"
         id="tspan1"
         style="stroke-width:0.765"
         x="117.06754"
         y="127.04278">#1</tspan></text><text
       xml:space="preserve"
       style="font-size:7.7611px;line-height:normal;font-family:'Berlin Sans FB';-inkscape-font-specification:'Berlin Sans FB';text-align:center;text-decoration-color:#000000;letter-spacing:0.235479px;writing-mode:lr-tb;direction:ltr;text-anchor:middle;fill:#000000;stroke-width:0.765;stroke-linecap:round;stroke-dasharray:none;paint-order:markers fill stroke"
       x="100.44723"
       y="82.607193"
       id="text1-2"><tspan
         sodipodi:role="line"
         id="tspan1-4"
         style="stroke-width:0.765"
         x="100.56496"
         y="82.607193">#2</tspan></text><g
       id="layer1-7"
       transform="translate(-40.364173,5.8753928)"><text
         xml:space="preserve"
         style="font-size:7.7611px;line-height:normal;font-family:'Berlin Sans FB';-inkscape-font-specification:'Berlin Sans FB';text-align:center;text-decoration-color:#000000;letter-spacing:0.235479px;writing-mode:lr-tb;direction:ltr;text-anchor:middle;fill:#000000;stroke-width:0.765;stroke-linecap:round;stroke-dasharray:none;paint-order:markers fill stroke"
         x="116.94981"
         y="127.04278"
         id="text1-1"><tspan
           sodipodi:role="line"
           id="tspan1-1"
           style="stroke-width:0.765"
           x="117.06754"
           y="127.04278">#3</tspan></text></g></g></svg>
